<?xml version="1.0" standalone="no"?>
<!DOCTYPE svg PUBLIC "-//W3C//DTD SVG 20010904//EN"
 "http://www.w3.org/TR/2001/REC-SVG-20010904/DTD/svg10.dtd">
<svg version="1.0" xmlns="http://www.w3.org/2000/svg"
 width="700.000000pt" height="700.000000pt" viewBox="0 0 700.000000 700.000000"
 preserveAspectRatio="xMidYMid meet">
<metadata>
Created by potrace 1.14, written by Peter Selinger 2001-2017
</metadata>
<g transform="translate(0.000000,700.000000) scale(0.100000,-0.100000)"
fill="#000000" stroke="none">
<path d="M3129 6986 c-2 -2 -33 -6 -69 -9 -56 -5 -161 -23 -250 -41 -14 -3
-50 -11 -80 -17 -128 -26 -404 -118 -595 -197 -165 -69 -470 -233 -618 -334
-191 -129 -472 -384 -659 -596 -275 -312 -485 -668 -645 -1096 -56 -148 -84
-240 -129 -420 -61 -248 -68 -330 -68 -781 0 -285 7 -481 19 -540 3 -11 7 -33
9 -50 23 -144 140 -558 168 -593 6 -6 8 -12 5 -12 -21 0 196 -462 292 -620
162 -270 451 -612 676 -801 22 -19 42 -36 45 -39 28 -29 245 -200 265 -210 5
-3 55 -35 110 -71 127 -85 236 -142 274 -143 16 -1 27 -4 25 -8 -7 -11 37 -48
87 -73 62 -32 176 -68 189 -60 5 3 15 -6 20 -20 9 -23 15 -26 47 -23 21 2 42
-2 48 -9 6 -7 21 -14 35 -17 141 -24 153 -26 164 -17 6 4 25 4 41 1 l30 -7
-33 -8 c-54 -12 -37 -37 43 -63 95 -31 109 -28 113 24 3 48 -5 56 -70 74 -30
8 -48 18 -48 28 0 11 7 13 33 8 17 -4 55 -11 83 -16 28 -4 77 -19 110 -32 63
-26 84 -26 84 0 0 13 3 12 15 -5 15 -21 46 -32 110 -39 70 -7 107 -13 111 -16
2 -2 -3 -16 -11 -31 -17 -34 -10 -62 21 -76 37 -16 54 -14 64 12 8 21 9 20 10
-8 1 -28 3 -27 17 15 13 37 17 41 23 25 4 -11 5 -26 3 -32 -3 -7 2 -13 11 -13
9 0 16 -7 16 -15 0 -19 39 -20 46 -1 5 12 10 12 30 1 25 -13 78 -13 187 0 29
4 47 2 47 -5 0 -16 60 -12 66 5 6 14 8 14 19 -1 17 -24 24 1 13 44 -8 30 -12
33 -36 28 -20 -5 -23 -4 -12 4 12 8 9 10 -15 10 -198 5 -349 24 -224 29 29 1
56 4 62 8 6 3 7 1 3 -5 -12 -19 280 4 318 25 6 3 5 0 -1 -8 -21 -22 -15 -29
25 -27 45 1 62 -7 62 -29 0 -9 -6 -13 -15 -9 -37 14 -106 17 -120 6 -13 -10
-13 -16 0 -41 17 -32 60 -45 116 -35 19 4 72 9 118 12 46 2 91 9 101 14 10 5
53 12 96 15 60 5 83 11 95 26 14 15 18 16 22 4 5 -10 13 -12 35 -6 57 17 72
30 78 72 l7 40 23 -22 c13 -12 24 -31 24 -42 0 -18 2 -17 25 7 13 14 31 26 40
26 19 0 20 29 0 36 -9 4 -14 14 -13 23 4 22 -40 28 -48 7 -7 -17 -49 -22 -58
-7 -7 10 11 17 159 66 l100 34 5 153 c4 108 7 129 9 73 4 -125 11 -199 20
-208 5 -5 36 3 70 17 38 15 61 20 58 13 -2 -7 -22 -19 -45 -27 -24 -8 -40 -20
-38 -26 3 -7 -6 -10 -22 -8 -43 5 -46 -7 -8 -32 42 -29 93 -38 129 -25 19 8
25 15 20 27 -4 12 -3 15 5 10 21 -13 119 23 168 60 32 25 54 34 70 31 14 -2
24 1 24 7 0 7 21 22 48 35 243 117 549 346 807 605 180 181 224 231 352 401
314 415 583 1061 648 1555 25 183 25 909 1 1035 -2 11 -7 43 -10 70 -11 81
-83 363 -125 491 -98 296 -293 692 -449 914 -43 60 -164 216 -222 285 -41 50
-290 298 -365 365 -79 71 -262 211 -375 287 -296 200 -681 368 -1100 480 -100
26 -108 28 -161 37 -19 3 -45 8 -58 10 -13 3 -58 8 -100 12 -42 3 -92 8 -111
11 -45 5 -755 14 -761 9z m35 -114 c2 -4 -12 -9 -32 -10 -37 -3 -52 -5 -152
-22 -30 -5 -71 -12 -90 -15 -19 -3 -84 -17 -145 -31 -60 -14 -117 -27 -125
-29 -91 -20 -324 -98 -408 -136 -35 -16 -66 -29 -68 -29 -10 0 -250 -123 -309
-157 -155 -92 -399 -260 -461 -317 -7 -6 -43 -38 -80 -70 -126 -109 -347 -336
-424 -436 -19 -25 -44 -55 -55 -68 -48 -57 -151 -208 -225 -332 -96 -161 -107
-178 -80 -122 30 62 165 286 215 357 161 227 337 420 590 645 80 71 375 280
396 280 5 0 9 5 9 10 0 6 4 10 9 10 4 0 48 23 97 51 180 104 482 238 649 289
210 64 447 116 585 129 52 4 96 9 97 10 1 0 4 -3 7 -7z m43 2 c-3 -3 -12 -4
-19 -1 -8 3 -5 6 6 6 11 1 17 -2 13 -5z m570 0 c-3 -3 -12 -4 -19 -1 -8 3 -5
6 6 6 11 1 17 -2 13 -5z m228 -15 c123 -15 140 -18 300 -59 616 -157 1166
-465 1580 -886 134 -137 176 -184 264 -294 217 -271 399 -587 528 -919 65
-170 162 -519 178 -646 3 -27 8 -63 10 -80 6 -53 9 -155 3 -160 -2 -3 -5 1 -5
7 0 31 -14 162 -18 167 -2 4 -6 35 -10 71 -3 35 -8 67 -10 70 -2 3 -6 26 -10
50 -7 47 -12 68 -69 270 -53 188 -161 459 -238 598 -17 32 -41 75 -53 97 -137
247 -332 502 -555 725 -85 86 -186 182 -225 214 -38 32 -81 67 -94 79 -51 42
-230 165 -346 237 -220 137 -489 257 -745 334 -164 49 -274 77 -370 92 -19 3
-46 7 -60 10 -14 2 -47 7 -75 10 -27 4 -57 8 -65 10 -8 1 -27 3 -42 3 -16 1
-28 5 -28 9 0 9 29 7 155 -9z m-781 -398 c-9 -9 -34 -9 -34 -1 0 5 9 8 20 7
10 -1 17 -3 14 -6z m94 2 c-16 -2 -40 -2 -55 0 -16 2 -3 4 27 4 30 0 43 -2 28
-4z m125 0 c-7 -2 -19 -2 -25 0 -7 3 -2 5 12 5 14 0 19 -2 13 -5z m74 1 c-3
-3 -12 -4 -19 -1 -8 3 -5 6 6 6 11 1 17 -2 13 -5z m110 -1 c-20 -2 -52 -2 -70
0 -17 2 0 4 38 4 39 0 53 -2 32 -4z m226 -8 c48 -4 96 -8 105 -10 9 -1 37 -6
62 -9 60 -8 79 -12 153 -31 34 -9 71 -18 83 -21 12 -2 79 -22 150 -45 224 -72
519 -212 729 -347 106 -68 401 -312 377 -312 -5 0 -17 10 -28 21 -10 12 -55
51 -99 87 -44 37 -82 69 -85 72 -67 69 -370 248 -585 345 -190 87 -417 164
-558 190 -12 3 -33 7 -47 10 -57 12 -77 16 -120 21 -25 3 -56 7 -70 9 -14 2
-56 7 -95 10 -120 11 -148 15 -154 21 -3 3 17 3 44 0 28 -3 90 -8 138 -11z
m-718 -5 c-16 -4 -41 -8 -55 -8 -22 0 -22 1 5 8 17 4 41 8 55 8 22 0 22 -1 -5
-8z m-85 -10 c0 -5 -9 -10 -21 -10 -36 0 -220 -41 -342 -76 -239 -68 -593
-225 -770 -341 -67 -44 -267 -190 -277 -203 -3 -3 -44 -41 -92 -83 -56 -50
-89 -73 -94 -65 -4 6 -3 8 3 5 6 -4 28 13 50 36 91 96 174 161 368 291 124 83
427 242 500 262 6 1 39 14 75 28 150 61 294 101 550 154 25 6 46 10 48 11 1 1
2 -3 2 -9z m2576 -863 c172 -179 283 -316 369 -452 30 -49 55 -95 55 -104 -1
-9 -12 7 -26 34 -42 81 -151 235 -230 325 -105 119 -240 263 -257 275 -12 8
-17 15 -11 15 6 0 51 -42 100 -93z m-4176 57 c0 -8 -19 -13 -24 -6 -3 5 1 9 9
9 8 0 15 -2 15 -3z m-30 -27 c0 -2 -19 -18 -42 -36 l-43 -32 39 35 c37 34 46
40 46 33z m-158 -164 c-88 -98 -202 -241 -202 -254 0 -5 -5 -9 -11 -9 -26 0
258 349 284 350 5 0 -27 -39 -71 -87z m1708 5 c52 -11 122 -30 155 -43 95 -38
130 -42 341 -43 211 0 249 5 384 53 65 24 81 26 125 17 l50 -9 -40 -2 c-55 -2
-121 -18 -179 -42 -27 -11 -58 -23 -70 -25 -76 -15 -190 -19 -230 -9 -23 6
-27 5 -21 -6 7 -11 6 -12 -6 -2 -11 9 -55 12 -145 11 -125 -1 -131 -1 -194 30
-61 29 -120 43 -196 45 -19 1 -29 4 -23 7 8 6 -114 29 -183 35 -10 1 -21 4
-24 8 -12 12 162 -5 256 -25z m-300 18 c0 -2 -13 -6 -29 -8 -17 -2 -28 -1 -25
4 5 8 54 12 54 4z m1810 -82 c117 -21 307 -80 352 -109 61 -41 170 -148 185
-182 19 -46 16 -50 -9 -17 -12 16 -25 31 -29 34 -3 3 -17 23 -31 46 -31 49
-127 104 -182 104 -20 0 -36 4 -36 10 0 13 -63 44 -120 61 -57 16 -55 15 -126
23 -73 8 -119 22 -134 42 -7 7 -24 14 -39 15 -23 0 -24 1 -6 8 12 6 33 3 55
-6 19 -8 73 -21 120 -29z m-3455 -240 c-50 -77 -148 -253 -186 -334 -117 -251
-202 -492 -222 -636 -1 -12 -11 -30 -22 -40 -17 -17 -18 -17 -12 -1 4 10 14
46 23 80 74 287 212 618 349 837 44 71 78 120 83 120 2 0 -3 -12 -13 -26z
m-564 -157 c-10 -9 -11 -8 -5 6 3 10 9 15 12 12 3 -3 0 -11 -7 -18z m4688
-131 c13 -15 13 -19 0 -26 -9 -6 -15 -5 -18 3 -2 7 -9 19 -16 27 -7 8 -15 33
-19 55 -3 22 -8 51 -11 65 -3 14 7 -5 22 -41 15 -36 34 -74 42 -83z m-2176 63
c-3 -11 -6 -18 -7 -17 -1 2 -7 10 -13 18 -10 13 -8 16 6 17 14 1 17 -4 14 -18z
m3151 -5 c3 -8 2 -12 -4 -9 -6 3 -10 10 -10 16 0 14 7 11 14 -7z m-5718 -41
c-8 -15 -15 -25 -16 -21 0 12 23 58 27 54 3 -2 -2 -17 -11 -33z m5820 -180
c-4 -5 -96 185 -95 196 0 3 23 -39 50 -93 27 -55 47 -101 45 -103z m-2048 117
c-29 -33 -53 -60 -54 -60 -1 0 12 24 29 54 18 31 41 57 52 59 11 2 21 5 23 6
2 0 -21 -26 -50 -59z m-1161 -12 c18 -36 12 -35 -16 2 -12 17 -19 36 -15 42 6
9 9 8 12 -2 3 -8 11 -27 19 -42z m402 -6 c7 -15 9 -22 4 -17 -4 6 -22 25 -38
44 -29 33 -29 33 -4 17 14 -9 31 -29 38 -44z m-3043 11 c-8 -15 -15 -25 -16
-21 0 12 23 58 27 54 3 -2 -2 -17 -11 -33z m4244 23 c0 -3 -4 -8 -10 -11 -5
-3 -10 -1 -10 4 0 6 5 11 10 11 6 0 10 -2 10 -4z m-4289 -141 c-63 -163 -128
-397 -155 -555 -17 -101 -18 -112 -40 -300 -8 -67 -17 -125 -21 -128 -3 -4 -4
14 -1 38 3 25 8 74 11 110 15 176 58 404 110 590 28 99 115 333 122 327 2 -3
-10 -39 -26 -82z m4605 7 c-6 -5 -36 23 -36 34 0 4 9 -1 20 -11 11 -10 18 -20
16 -23z m-826 -173 c0 -5 -4 -9 -10 -9 -5 0 -10 9 -10 20 0 11 -4 20 -10 20
-5 0 -10 6 -10 13 1 13 40 -30 40 -44z m11 -54 c17 -37 14 -42 -12 -22 -14 11
-22 57 -9 57 3 -1 12 -16 21 -35z m-846 -155 c-1 -11 -12 -28 -26 -37 -13 -9
-59 -45 -102 -80 -43 -35 -81 -63 -85 -63 -4 0 7 11 23 23 17 12 64 57 105 99
41 42 78 77 81 78 3 0 5 -9 4 -20z m1175 -27 c-8 -3 -23 -10 -32 -15 -14 -6
-16 -5 -12 7 4 8 18 15 33 14 15 0 20 -3 11 -6z m1932 -28 c3 -13 2 -22 -2
-20 -4 3 -10 16 -12 30 -3 13 -2 22 2 20 4 -3 10 -16 12 -30z m45 -207 c-3 -8
-6 -5 -6 6 -1 11 2 17 5 13 3 -3 4 -12 1 -19z m-5860 -50 c-2 -13 -4 -5 -4 17
-1 22 1 32 4 23 2 -10 2 -28 0 -40z m5870 -1 c2 -12 8 -47 13 -77 12 -62 26
-278 18 -270 -3 3 -9 47 -12 98 -4 51 -9 101 -11 110 -1 9 -6 42 -9 73 -4 31
-9 67 -11 79 -2 13 -1 20 2 16 4 -4 8 -17 10 -29z m-5879 -99 c-12 -105 -17
-124 -13 -43 3 39 5 80 5 93 0 12 4 22 8 22 5 0 5 -33 0 -72z m-441 -245 c-3
-10 -5 -4 -5 12 0 17 2 24 5 18 2 -7 2 -21 0 -30z m4490 -245 c-3 -7 -5 -2 -5
12 0 14 2 19 5 13 2 -7 2 -19 0 -25z m-57 -78 c-17 -22 -34 -40 -37 -40 -2 0
10 18 27 40 17 22 34 40 37 40 2 0 -10 -18 -27 -40z m-77 -86 c-21 -19 -55
-44 -75 -55 -40 -20 -171 -52 -163 -39 3 4 22 11 42 15 50 9 174 69 198 95 10
11 22 20 27 20 5 0 -8 -16 -29 -36z m1983 -96 c-4 -68 -13 -152 -21 -188 -43
-197 -36 -180 -70 -179 -29 0 -29 1 -7 11 12 6 21 16 19 22 -3 6 2 18 9 26 7
9 16 31 19 50 3 19 10 60 15 90 5 30 12 82 16 114 3 33 8 67 9 75 2 9 4 35 4
59 1 23 4 42 7 42 3 0 3 -55 0 -122z m-6329 65 c-3 -10 -5 -2 -5 17 0 19 2 27
5 18 2 -10 2 -26 0 -35z m6750 -28 c0 -8 -4 -15 -9 -15 -10 0 -11 14 -1 23 9
10 10 9 10 -8z m-6713 -245 c45 -336 223 -826 416 -1145 59 -97 187 -285 238
-349 166 -211 461 -510 586 -595 11 -8 23 -18 26 -21 14 -19 187 -139 298
-208 215 -133 370 -210 542 -269 25 -8 49 -18 53 -22 9 -9 -27 -35 -60 -43
-27 -7 -29 -1 -8 22 15 16 11 20 -50 44 -69 28 -100 32 -110 16 -8 -12 -25
-13 -45 0 -13 8 -12 11 5 24 17 14 18 17 5 26 -8 6 -31 8 -51 6 -32 -5 -35 -3
-35 16 1 17 -7 24 -35 32 -20 6 -51 22 -70 36 -39 30 -169 110 -215 133 -17 9
-53 33 -80 53 -47 37 -48 37 -77 20 -22 -12 -28 -13 -24 -3 3 8 -3 32 -13 54
-26 58 -100 112 -87 63 3 -11 1 -20 -4 -20 -11 0 -31 38 -25 49 12 19 -75 77
-101 67 -12 -5 -14 -1 -10 15 7 27 -27 62 -54 54 -12 -4 -19 -2 -19 7 0 18
-95 135 -209 257 -138 148 -278 347 -416 591 -41 73 -75 134 -75 135 0 2 -24
54 -54 117 -53 113 -122 291 -146 378 -7 25 -16 56 -21 70 -19 55 -84 342 -93
410 -3 25 -8 88 -10 140 l-5 95 13 -105 c8 -58 17 -125 20 -150z m3868 207 c1
5 18 3 37 -3 34 -11 33 -11 -29 -17 -35 -4 -66 -5 -68 -2 -3 3 7 5 23 5 25 0
26 2 14 18 -13 15 -12 16 3 4 9 -7 18 -9 20 -5z m2843 1 c-2 -7 -6 -49 -9 -93
-10 -140 -42 -290 -123 -565 -43 -146 -123 -338 -213 -515 -105 -206 -203
-369 -155 -260 10 22 20 54 23 72 2 18 11 38 20 45 13 11 14 10 4 -9 -16 -30
-15 -38 3 -23 8 7 19 29 25 50 6 21 29 69 52 107 73 119 180 371 231 543 36
122 84 317 91 370 4 25 11 77 16 115 13 95 19 137 19 158 1 9 5 17 11 17 5 0
8 -6 5 -12z m-6311 -83 c3 -33 12 -86 20 -117 7 -32 9 -58 5 -58 -5 0 -9 5 -9
10 0 13 1 10 -14 72 -12 54 -22 167 -13 158 3 -3 7 -32 11 -65z m3191 -55
c-26 -25 -157 -58 -259 -64 -43 -3 -76 -3 -73 0 5 5 19 7 122 18 90 10 158 26
189 45 40 25 45 25 21 1z m-445 -30 c6 -11 8 -20 6 -20 -3 0 -10 9 -16 20 -6
11 -8 20 -6 20 3 0 10 -9 16 -20z m-2713 -132 c-3 -7 -5 -2 -5 12 0 14 2 19 5
13 2 -7 2 -19 0 -25z m28 -116 c-5 -5 -25 69 -24 88 0 8 7 -7 14 -35 8 -27 12
-51 10 -53z m5759 -9 c-24 -57 -33 -91 -26 -99 4 -5 -1 -2 -10 5 -22 17 -23
47 -2 55 10 4 14 12 10 23 -4 9 1 24 10 34 27 30 35 22 18 -18z m-5686 -178
c56 -143 56 -144 43 -125 -6 8 -11 11 -11 5 -1 -13 -51 121 -79 208 -21 67
-29 120 -9 62 5 -16 31 -84 56 -150z m5647 45 c16 -7 17 -9 3 -9 -10 -1 -23
-19 -34 -48 -9 -27 -55 -137 -100 -246 -46 -108 -84 -204 -84 -212 0 -8 -12
-25 -26 -38 -14 -12 -30 -31 -34 -42 -8 -18 -9 -18 -9 -2 -1 11 13 32 29 47
17 15 30 34 30 42 0 17 29 90 108 269 33 75 63 152 68 170 11 48 11 48 14 57
1 4 2 10 1 15 -1 9 8 8 34 -3z m-5388 -552 c-3 -8 -6 -5 -6 6 -1 11 2 17 5 13
3 -3 4 -12 1 -19z m5028 -184 c-29 -43 -87 -108 -106 -120 -8 -4 -3 5 11 22
123 146 139 163 95 98z m-125 -147 c0 -2 -10 -12 -22 -23 l-23 -19 19 23 c18
21 26 27 26 19z m460 -42 c0 -8 -2 -15 -4 -15 -2 0 -6 7 -10 15 -3 8 -1 15 4
15 6 0 10 -7 10 -15z m24 -22 c-52 -81 -299 -401 -330 -428 -6 -5 -30 -35 -54
-65 -23 -30 -66 -73 -95 -95 -29 -22 -77 -62 -107 -90 -30 -27 -83 -75 -118
-105 -79 -69 -88 -77 -107 -107 -11 -16 -23 -23 -35 -20 -11 3 -22 -1 -25 -9
-3 -8 -25 -23 -48 -33 -66 -29 -165 -100 -177 -126 -7 -17 -22 -26 -49 -30
-23 -4 -40 -13 -40 -21 -1 -8 -3 -18 -4 -24 -1 -5 -3 -14 -4 -20 0 -5 -10 -10
-21 -10 -14 0 -20 7 -20 21 0 18 -4 20 -26 15 -15 -4 -33 -14 -41 -22 -30 -30
-164 -84 -162 -66 0 4 67 40 147 79 81 40 184 97 229 125 46 29 103 65 128 80
25 15 50 40 57 55 7 15 13 29 14 31 1 2 14 5 30 8 44 8 65 31 54 60 -10 26 -4
33 23 29 30 -5 120 30 131 51 6 10 18 23 26 28 8 6 28 25 44 43 16 18 35 33
41 33 7 0 23 21 36 46 13 25 25 41 27 36 5 -16 32 -2 32 17 0 28 28 59 61 66
31 7 79 67 59 73 -17 6 -11 22 8 22 26 0 62 28 62 49 0 10 8 21 18 23 10 3 34
29 54 59 20 30 51 70 68 89 18 19 43 58 56 85 13 28 24 44 24 36 0 -11 3 -11
15 -1 8 7 15 19 15 26 0 8 5 14 11 14 7 0 4 -11 -7 -27z m-5096 -60 c-5 -18
257 -283 377 -382 93 -77 140 -119 100 -91 -11 8 -34 26 -51 40 -17 14 -51 40
-75 59 -69 54 -370 361 -364 372 7 11 16 12 13 2z m4794 -198 c4 -20 3 -23 -8
-14 -11 9 -18 8 -31 -2 -10 -7 -7 -1 6 14 14 15 25 27 27 27 1 0 4 -11 6 -25z
m-537 -76 c-74 -76 -206 -184 -348 -286 -68 -49 -88 -69 -95 -95 l-8 -33 -7
28 c-8 31 -22 34 -57 10 -25 -17 -25 -17 -7 4 10 12 30 24 45 28 62 15 299
192 462 344 41 39 77 70 80 71 2 0 -27 -32 -65 -71z m-3734 -226 c13 -16 12
-17 -3 -4 -17 13 -22 21 -14 21 2 0 10 -8 17 -17z m124 -79 c112 -69 324 -175
406 -204 45 -16 85 -33 88 -39 7 -11 60 -35 144 -66 27 -9 47 -19 44 -21 -3
-4 -82 24 -202 71 -163 64 -486 239 -565 306 l-25 21 25 -16 c14 -9 52 -32 85
-52z m2960 16 c-26 -11 -35 -12 -35 -2 0 4 12 8 28 9 23 1 24 1 7 -7z m-86
-25 c-2 -1 -26 -6 -53 -9 -27 -4 -54 -10 -60 -13 -7 -3 -6 -1 0 7 7 6 29 14
50 16 20 2 42 8 48 14 8 8 12 8 14 0 2 -6 2 -13 1 -15z m-1636 -44 c4 -5 -11
-5 -35 -2 -24 4 -53 6 -65 5 -13 -1 -23 2 -23 7 0 19 100 11 123 -10z m1424
-6 c-18 -17 -239 -27 -613 -27 -399 0 -474 2 -474 10 0 4 233 8 518 8 335 1
526 5 542 12 35 15 44 14 27 -3z m-1380 -1 c-3 -3 -12 -4 -19 -1 -8 3 -5 6 6
6 11 1 17 -2 13 -5z m74 -12 c-7 -2 -18 1 -23 6 -8 8 -4 9 13 5 13 -4 18 -8
10 -11z m203 -1 c5 -7 -160 -3 -179 4 -5 2 32 4 83 3 51 0 94 -3 96 -7z m1496
-26 c-17 -20 -69 -51 -100 -59 -14 -4 1 7 32 24 31 16 59 34 63 40 3 5 9 10
12 10 3 0 0 -7 -7 -15z m-286 -147 c-5 -7 -8 -26 -8 -43 l1 -30 -4 29 c-4 26
-7 28 -36 23 -31 -5 -30 -5 8 13 48 23 48 23 39 8z m-1894 -128 c22 -7 40 -17
40 -21 0 -7 -52 6 -165 42 -51 16 -54 18 -20 14 22 -3 46 -1 54 4 9 6 20 3 33
-8 10 -10 36 -24 58 -31z m1887 8 c-3 -7 -5 -2 -5 12 0 14 2 19 5 13 2 -7 2
-19 0 -25z m-370 -14 c-3 -3 -12 -4 -19 -1 -8 3 -5 6 6 6 11 1 17 -2 13 -5z
m-40 -10 c-3 -3 -12 -4 -19 -1 -8 3 -5 6 6 6 11 1 17 -2 13 -5z m-1345 -18
c35 -8 81 -17 102 -21 22 -3 42 -8 45 -11 5 -5 -61 1 -99 9 -87 18 -130 29
-130 33 0 7 15 5 82 -10z m1154 -15 c-3 -4 -25 -11 -48 -15 -24 -3 -56 -8 -73
-11 -75 -13 -160 -22 -164 -19 -9 8 6 12 74 19 55 5 197 28 213 34 2 0 1 -3
-2 -8z m47 2 c-7 -2 -19 -2 -25 0 -7 3 -2 5 12 5 14 0 19 -2 13 -5z m-348 -43
c-3 -5 -27 -9 -53 -8 l-47 1 50 7 c28 4 51 8 53 8 2 1 0 -2 -3 -8z m1100 -150
c-3 -5 -11 -10 -16 -10 -6 0 -7 5 -4 10 3 6 11 10 16 10 6 0 7 -4 4 -10z
m-2302 -147 c-3 -7 -15 -13 -27 -13 -12 0 -27 -5 -34 -12 -9 -9 -12 -8 -12 5
0 19 -25 35 -90 58 -25 9 -46 23 -48 31 -2 13 18 9 106 -20 76 -25 108 -40
105 -49z m734 27 c-5 -30 -12 -32 -15 -5 -1 14 3 25 8 25 5 0 9 -9 7 -20z
m971 -52 c1 -7 4 -26 7 -43 3 -16 2 -24 -1 -17 -7 15 -53 15 -114 1 -25 -6
-53 -12 -63 -14 -9 -2 -22 -7 -29 -11 -7 -4 -8 -3 -4 4 9 15 -16 16 -30 2 -13
-13 -142 -21 -149 -10 -10 16 78 37 192 44 34 3 72 11 85 20 12 9 34 16 48 16
14 0 32 5 40 10 8 5 15 10 16 10 0 0 1 -6 2 -12z m85 -8 c7 0 4 -5 -6 -11 -21
-12 -51 -4 -42 12 4 6 14 8 22 5 8 -3 20 -6 26 -6z m-466 -45 c0 -20 -4 -19
-17 5 -8 15 -8 18 3 14 8 -3 14 -11 14 -19z m-568 -55 c-27 -18 -56 -23 -64
-10 -11 18 -33 11 -41 -12 l-7 -23 -8 23 -9 24 -37 -23 c-32 -20 -36 -20 -30
-5 4 10 7 23 7 30 0 8 31 11 105 11 96 0 104 -1 84 -15z m15 -46 c3 -8 2 -12
-4 -9 -6 3 -10 10 -10 16 0 14 7 11 14 -7z m710 -15 c-3 -5 -11 -9 -17 -9 -7
0 -6 4 3 10 10 6 11 10 3 10 -7 0 -13 5 -13 11 0 8 5 8 15 -1 8 -7 12 -16 9
-21z"/>
<path d="M4551 273 c-31 -4 -33 -6 -27 -36 7 -34 38 -82 52 -81 5 0 10 9 12
20 7 44 12 48 28 26 19 -28 34 -20 34 18 0 60 -7 64 -99 53z"/>
<path d="M2710 137 c0 -55 19 -77 66 -77 33 0 34 1 34 40 0 44 2 45 32 29 15
-8 18 -17 14 -35 -7 -28 18 -35 28 -8 15 40 -37 78 -122 90 l-52 7 0 -46z"/>
<path d="M3005 118 c-25 -19 -28 -20 -37 -5 -5 10 -21 17 -40 17 -29 0 -30 -1
-15 -18 10 -10 17 -26 17 -36 0 -19 29 -34 39 -19 3 6 26 10 51 9 36 -1 44 2
41 14 -3 8 -5 25 -5 38 -1 28 -16 28 -51 0z"/>
</g>
</svg>
